# xmcd CD database file
#
# Track frame offsets:
#	150
#	11695
#	33813
#	47763
#	94413
#	110740
#	122613
#	134478
#	146460
#	166488
#	198113
#	228305
#	240653
#	258241
#	269813
#	283001
#	294451
#	313526
#
# Disc length: 4367 seconds
#
# Revision: 1
# Processed by: cddbd v1.5.1PL2 Copyright (c) Steve Scherf et al.
# Submitted via: CDex 1.51
#
DISCID=09110d12
DTITLE=Nina Simone - Best of
DYEAR=1999
DGENRE=Jazz
TTITLE0=I love you Porgy
TTITLE1=Mississippi Goddam
TTITLE2=The Other Woman
TTITLE3=Sinnerman
TTITLE4=Ne me quitte pas
TTITLE5=See line woman
TTITLE6=I put a spell on you
TTITLE7=Break down and let it all out
TTITLE8=For woman
TTITLE9=Wild is the thing
TTITLE10=Pirate Jenny
TTITLE11=Don't let me be misunderstood
TTITLE12=I shall be released
TTITLE13=Day and night
TTITLE14=It be's that way sometime
TTITLE15=I want a little sugar in my bowl
TTITLE16=My man's gone now
TTITLE17=I wish I knew how it would feel to be free
EXTD=YEAR: 1999
EXTT0=
EXTT1=
EXTT2=
EXTT3=
EXTT4=
EXTT5=
EXTT6=
EXTT7=
EXTT8=
EXTT9=
EXTT10=
EXTT11=
EXTT12=
EXTT13=
EXTT14=
EXTT15=
EXTT16=
EXTT17=
PLAYORDER=
